<svg id="Layer_1" data-name="Layer 1" xmlns="http://www.w3.org/2000/svg" xmlns:xlink="http://www.w3.org/1999/xlink" viewBox="0 0 183.74 90.7"><defs><style>.cls-1{fill:#9b1212;}.cls-2{fill:#133611;}</style></defs><title>Untitled-2</title><path class="cls-1" d="M8.53,47.54a42.53,42.53,0,0,1,7.68-.61c3.81,0,6.67.77,8.57,2.44a8.61,8.61,0,0,1,2.83,6.68,9.45,9.45,0,0,1-2.5,6.89c-2.11,2.2-5.41,3.24-8.95,3.24A12.37,12.37,0,0,1,13.85,66V77.65H8.53Zm5.32,14.23a9.49,9.49,0,0,0,2.26.2c3.87,0,6.18-2.11,6.18-5.66,0-3.22-2-5.21-5.68-5.21a11.91,11.91,0,0,0-2.76.26Z" transform="translate(-7.81 -46.93)"/><path class="cls-1" d="M47.65,64H37.43v9.18H48.9v4.47H32.07V47.13H48.26V51.6H37.43v8H47.65Z" transform="translate(-7.81 -46.93)"/><path class="cls-1" d="M77.09,65.4c-.18-3.78-.38-8.35-.34-12.27h-.13c-.89,3.62-2,7.61-3.17,11.19l-4.08,13h-4L61.64,64.55c-1.07-3.67-2.09-7.71-2.8-11.42h-.11c-.11,3.83-.3,8.46-.51,12.45l-.64,12.07h-4.9l2-30.52h6.67l3.67,12.29c1,3.71,2,7.2,2.65,10.62h.12c.74-3.36,1.67-6.93,2.76-10.64l3.83-12.27H81L82.8,77.65H77.68Z" transform="translate(-7.81 -46.93)"/><path class="cls-1" d="M93.47,47.13V77.65H88.12V47.13Z" transform="translate(-7.81 -46.93)"/><path class="cls-1" d="M99.57,47.13h5.35v26h11.23v4.5H99.57Z" transform="translate(-7.81 -46.93)"/><path class="cls-1" d="M124,47.13V65.62c0,5.66,2.2,8.08,5.42,8.08,3.44,0,5.55-2.4,5.55-8.08V47.13h5.36v18c0,8.95-4.32,13-11.06,13s-10.62-3.9-10.62-12.9V47.13Z" transform="translate(-7.81 -46.93)"/><path class="cls-2" d="M17.43,82v22.14H37.54V82h9.61v54.79H37.54V112.65H17.43v24.16H7.81V82Z" transform="translate(-7.81 -46.93)"/><path class="cls-2" d="M67.66,82v54.79H58V82Z" transform="translate(-7.81 -46.93)"/><path class="cls-2" d="M87.83,82h9.61v36.35c0,14.84-7,19.26-17,19.26a23.55,23.55,0,0,1-7.31-1.11l1.08-7.85a17.46,17.46,0,0,0,5.29.81c5.1,0,8.32-2.26,8.32-11.26Z" transform="translate(-7.81 -46.93)"/><path class="cls-2" d="M117.79,121.68l-4.16,15.13h-9.77l16-54.79h12l15.86,54.79H137.58l-4.34-15.13Zm14-7.33-3.71-13.22c-.93-3.45-1.79-7.58-2.54-10.95h-.2c-.74,3.41-1.57,7.63-2.44,10.93l-3.69,13.24Z" transform="translate(-7.81 -46.93)"/><path class="cls-2" d="M162.24,82v33.19c0,10.16,3.94,14.5,9.72,14.5,6.17,0,10-4.3,10-14.5V82h9.61v32.3c0,16.06-7.75,23.31-19.85,23.31-11.85,0-19.07-7-19.07-23.15V82Z" transform="translate(-7.81 -46.93)"/><image width="512" height="512" transform="translate(139.19 0.07) scale(0.06)" xlink:href="4381051.png"/></svg>